<?xml version="1.0" encoding="UTF-8" standalone="no"?>
<svg
   height="765.89569"
   width="839.03442"
   version="1.1"
   id="svg4"
   sodipodi:docname="icon.svg"
   xml:space="preserve"
   inkscape:version="1.2 (dc2aedaf03, 2022-05-15)"
   xmlns:inkscape="http://www.inkscape.org/namespaces/inkscape"
   xmlns:sodipodi="http://sodipodi.sourceforge.net/DTD/sodipodi-0.dtd"
   xmlns="http://www.w3.org/2000/svg"
   xmlns:svg="http://www.w3.org/2000/svg"><defs
     id="defs8" /><sodipodi:namedview
     id="namedview6"
     pagecolor="#505050"
     bordercolor="#eeeeee"
     borderopacity="1"
     inkscape:showpageshadow="0"
     inkscape:pageopacity="0"
     inkscape:pagecheckerboard="0"
     inkscape:deskcolor="#505050"
     showgrid="false"
     inkscape:zoom="0.39774756"
     inkscape:cx="262.72945"
     inkscape:cy="458.83373"
     inkscape:window-width="1366"
     inkscape:window-height="705"
     inkscape:window-x="0"
     inkscape:window-y="34"
     inkscape:window-maximized="1"
     inkscape:current-layer="svg4" /><rect
     style="fill:#ffffff;fill-opacity:1;stroke-width:3.24237;stroke-linecap:round;stroke-linejoin:round"
     id="rect4489"
     width="505.40408"
     height="398"
     x="68.63826"
     y="74.169342"
     ry="35.617302" /><path
     d="M 688.21034,0 H 52.939257 C 23.698589,0 0,23.69859 0,52.93926 v 529.39257 c 0,29.24067 23.698589,52.93926 52.939257,52.93926 H 688.21034 c 29.24067,0 52.93926,-23.69859 52.93926,-52.93926 V 52.93926 C 741.1496,23.69859 717.45101,0 688.21034,0 Z M 105.87851,370.5748 211.75703,264.69629 105.87851,158.81777 158.81777,105.87851 317.63554,264.69629 158.81777,423.51406 Z m 423.51406,52.93926 H 317.63554 V 370.5748 h 211.75703 z"
     id="path2"
     style="fill:#1a2234;fill-opacity:1;stroke-width:0.827176" /><g
     id="g1295"
     transform="translate(-91.992521,-130.76057)"><g
       id="g1234"
       transform="rotate(17.988481,766.96651,984.66012)"><path
         id="path355"
         style="fill:#ec035d;fill-opacity:1;stroke-width:4.4625;stroke-linecap:round;stroke-linejoin:round"
         d="M 496.9122,543.12272 A 241.58599,98.884641 43.037499 0 0 440.19511,679.30869 241.58599,98.884641 43.037499 0 0 701.44405,894.41231 241.58599,98.884641 43.037499 0 0 758.16073,758.22745 241.58599,98.884641 43.037499 0 0 496.9122,543.12272 Z m 16.7545,28.77636 A 202.0064,82.684144 43.037498 0 1 732.11417,751.76272 202.0064,82.684144 43.037498 0 1 684.68954,865.63595 202.0064,82.684144 43.037498 0 1 466.24168,685.77343 202.0064,82.684144 43.037498 0 1 513.6667,571.89908 Z" /><path
         id="path1227"
         style="fill:#ec035d;fill-opacity:1;stroke-width:4.4625;stroke-linecap:round;stroke-linejoin:round"
         d="m 699.62151,542.07487 a 98.884641,241.58599 12.86352 0 0 -146.24076,19.4187 98.884641,241.58599 12.86352 0 0 -54.64689,333.9675 98.884641,241.58599 12.86352 0 0 146.2396,-19.41849 98.884641,241.58599 12.86352 0 0 54.64805,-333.96771 z m -16.45598,28.94811 a 82.684144,202.0064 12.863519 0 1 -45.69501,279.25292 82.684144,202.0064 12.863519 0 1 -122.28068,16.23706 82.684144,202.0064 12.863519 0 1 45.69384,-279.2527 82.684144,202.0064 12.863519 0 1 122.28185,-16.23728 z" /><path
         id="path1229"
         style="fill:#ec035d;fill-opacity:1;stroke-width:4.4625;stroke-linecap:round;stroke-linejoin:round"
         d="M 802.2231,709.72736 A 98.884641,241.58599 70.697441 0 0 707.93005,596.27135 98.884641,241.58599 70.697441 0 0 396.13108,727.80831 98.884641,241.58599 70.697441 0 0 490.42333,841.26345 98.884641,241.58599 70.697441 0 0 802.2231,709.72736 Z m -33.26557,1.48113 a 82.684144,202.0064 70.69744 0 1 -260.71686,109.98612 82.684144,202.0064 70.69744 0 1 -78.84402,-94.86743 82.684144,202.0064 70.69744 0 1 260.71606,-109.98699 82.684144,202.0064 70.69744 0 1 78.84482,94.8683 z" /></g><circle
       style="fill:#fefefc;fill-opacity:1;stroke-width:7.04882;stroke-linecap:round;stroke-linejoin:round"
       id="path1288"
       cx="689.49377"
       cy="679.94702"
       r="42.640003" /></g></svg>
